<svg width="16" height="17" viewBox="0 0 16 17" fill="none" xmlns="http://www.w3.org/2000/svg">
<path d="M7.49583 2.04167C8.96806 2.04167 10.3569 2.35764 11.6625 2.98958C12.9681 3.62153 14.0583 4.53472 14.9333 5.72917C15.0306 5.85417 15.0618 5.96528 15.0271 6.0625C14.9924 6.15972 14.9333 6.24306 14.85 6.3125C14.7667 6.38194 14.6694 6.41319 14.5583 6.40625C14.4472 6.39931 14.35 6.34028 14.2667 6.22917C13.5028 5.14583 12.5201 4.31597 11.3188 3.73958C10.1174 3.16319 8.84306 2.875 7.49583 2.875C6.14861 2.875 4.88472 3.16319 3.70417 3.73958C2.52361 4.31597 1.54444 5.14583 0.766667 6.22917C0.683333 6.35417 0.586111 6.42361 0.475 6.4375C0.363889 6.45139 0.266667 6.42361 0.183333 6.35417C0.0861111 6.28472 0.0270833 6.19792 0.00625 6.09375C-0.0145833 5.98958 0.0166667 5.88194 0.1 5.77083C0.961111 4.59028 2.04097 3.67361 3.33958 3.02083C4.63819 2.36806 6.02361 2.04167 7.49583 2.04167V2.04167M7.49583 4C9.37083 4 10.9819 4.625 12.3292 5.875C13.6764 7.125 14.35 8.67361 14.35 10.5208C14.35 11.2153 14.1035 11.7951 13.6104 12.2604C13.1174 12.7257 12.5167 12.9583 11.8083 12.9583C11.1 12.9583 10.4924 12.7257 9.98542 12.2604C9.47847 11.7951 9.225 11.2153 9.225 10.5208C9.225 10.0625 9.05486 9.67708 8.71458 9.36458C8.37431 9.05208 7.96806 8.89583 7.49583 8.89583C7.02361 8.89583 6.61736 9.05208 6.27708 9.36458C5.93681 9.67708 5.76667 10.0625 5.76667 10.5208C5.76667 11.8681 6.16597 12.9931 6.96458 13.8958C7.76319 14.7986 8.79444 15.4306 10.0583 15.7917C10.1833 15.8333 10.2667 15.9028 10.3083 16C10.35 16.0972 10.3569 16.2014 10.3292 16.3125C10.3014 16.4097 10.2458 16.4931 10.1625 16.5625C10.0792 16.6319 9.975 16.6528 9.85 16.625C8.40556 16.2639 7.225 15.5451 6.30833 14.4688C5.39167 13.3924 4.93333 12.0764 4.93333 10.5208C4.93333 9.82639 5.18333 9.24306 5.68333 8.77083C6.18333 8.29861 6.7875 8.0625 7.49583 8.0625C8.20417 8.0625 8.80833 8.29861 9.30833 8.77083C9.80833 9.24306 10.0583 9.82639 10.0583 10.5208C10.0583 10.9792 10.2319 11.3646 10.5792 11.6771C10.9264 11.9896 11.3361 12.1458 11.8083 12.1458C12.2806 12.1458 12.6833 11.9896 13.0167 11.6771C13.35 11.3646 13.5167 10.9792 13.5167 10.5208C13.5167 8.90972 12.9264 7.55556 11.7458 6.45833C10.5653 5.36111 9.15556 4.8125 7.51667 4.8125C5.87778 4.8125 4.46806 5.36111 3.2875 6.45833C2.10694 7.55556 1.51667 8.90278 1.51667 10.5C1.51667 10.8333 1.54792 11.25 1.61042 11.75C1.67292 12.25 1.82222 12.8333 2.05833 13.5C2.1 13.625 2.09653 13.7361 2.04792 13.8333C1.99931 13.9306 1.91944 14 1.80833 14.0417C1.69722 14.0833 1.58958 14.0799 1.48542 14.0312C1.38125 13.9826 1.30833 13.9028 1.26667 13.7917C1.05833 13.25 0.909028 12.7118 0.81875 12.1771C0.728472 11.6424 0.683333 11.0903 0.683333 10.5208C0.683333 8.67361 1.35347 7.125 2.69375 5.875C4.03403 4.625 5.63472 4 7.49583 4V4M7.49583 0C8.38472 0 9.25278 0.107639 10.1 0.322917C10.9472 0.538194 11.7667 0.847222 12.5583 1.25C12.6833 1.31944 12.7563 1.40278 12.7771 1.5C12.7979 1.59722 12.7875 1.69444 12.7458 1.79167C12.7042 1.88889 12.6347 1.96528 12.5375 2.02083C12.4403 2.07639 12.3222 2.06944 12.1833 2C11.4472 1.625 10.6868 1.33681 9.90208 1.13542C9.11736 0.934028 8.31528 0.833333 7.49583 0.833333C6.69028 0.833333 5.89861 0.927083 5.12083 1.11458C4.34306 1.30208 3.6 1.59722 2.89167 2C2.78056 2.06944 2.66944 2.08681 2.55833 2.05208C2.44722 2.01736 2.36389 1.94444 2.30833 1.83333C2.25278 1.72222 2.23889 1.62153 2.26667 1.53125C2.29444 1.44097 2.36389 1.36111 2.475 1.29167C3.25278 0.875 4.06528 0.555556 4.9125 0.333333C5.75972 0.111111 6.62083 0 7.49583 0V0M7.49583 6.02083C8.7875 6.02083 9.89861 6.45486 10.8292 7.32292C11.7597 8.19097 12.225 9.25694 12.225 10.5208C12.225 10.6458 12.1868 10.7465 12.1104 10.8229C12.034 10.8993 11.9333 10.9375 11.8083 10.9375C11.6972 10.9375 11.6 10.8993 11.5167 10.8229C11.4333 10.7465 11.3917 10.6458 11.3917 10.5208C11.3917 9.47917 11.0062 8.60764 10.2354 7.90625C9.46458 7.20486 8.55139 6.85417 7.49583 6.85417C6.44028 6.85417 5.53403 7.20486 4.77708 7.90625C4.02014 8.60764 3.64167 9.47917 3.64167 10.5208C3.64167 11.6458 3.83611 12.6007 4.225 13.3854C4.61389 14.1701 5.18333 14.9583 5.93333 15.75C6.01667 15.8333 6.05833 15.9306 6.05833 16.0417C6.05833 16.1528 6.01667 16.25 5.93333 16.3333C5.85 16.4167 5.75278 16.4583 5.64167 16.4583C5.53056 16.4583 5.43333 16.4167 5.35 16.3333C4.53056 15.4722 3.90208 14.5938 3.46458 13.6979C3.02708 12.8021 2.80833 11.7431 2.80833 10.5208C2.80833 9.25694 3.26667 8.19097 4.18333 7.32292C5.1 6.45486 6.20417 6.02083 7.49583 6.02083V6.02083M7.475 10.1042C7.6 10.1042 7.70069 10.1458 7.77708 10.2292C7.85347 10.3125 7.89167 10.4097 7.89167 10.5208C7.89167 11.5625 8.26667 12.4167 9.01667 13.0833C9.76667 13.75 10.6417 14.0833 11.6417 14.0833C11.725 14.0833 11.8431 14.0764 11.9958 14.0625C12.1486 14.0486 12.3083 14.0278 12.475 14C12.6 13.9722 12.7076 13.9896 12.7979 14.0521C12.8882 14.1146 12.9472 14.2083 12.975 14.3333C13.0028 14.4444 12.9819 14.5417 12.9125 14.625C12.8431 14.7083 12.7528 14.7639 12.6417 14.7917C12.3917 14.8611 12.1729 14.8993 11.9854 14.9062C11.7979 14.9132 11.6833 14.9167 11.6417 14.9167C10.4056 14.9167 9.33264 14.5 8.42292 13.6667C7.51319 12.8333 7.05833 11.7847 7.05833 10.5208C7.05833 10.4097 7.09653 10.3125 7.17292 10.2292C7.24931 10.1458 7.35 10.1042 7.475 10.1042V10.1042" fill="white"/>
</svg>
