<svg width="11" height="12" viewBox="0 0 11 12" fill="none" xmlns="http://www.w3.org/2000/svg">
<path d="M5.25081 5.2487C5.25081 7.30028 4.66222 9.21478 3.64489 10.8318M1.63822 9.64178L1.66972 9.58928C2.48786 8.28958 2.92052 6.78446 2.91747 5.2487C2.91747 3.9609 3.963 2.91536 5.25081 2.91536C6.53861 2.91536 7.58414 3.9609 7.58414 5.2487C7.58414 5.84195 7.54331 6.42645 7.46572 6.9987M6.23022 10.991C6.59027 10.2727 6.88168 9.52187 7.10056 8.7487M9.33997 9.40903C9.71622 8.0872 9.91747 6.69128 9.91747 5.2487C9.91747 2.67137 7.82814 0.582031 5.25081 0.582031C2.67348 0.582031 0.58414 2.67137 0.58414 5.2487" stroke="#94A3B8" stroke-width="1.16667" stroke-linecap="round" stroke-linejoin="round"/>
</svg>
